<mxfile host="app.diagrams.net" agent="Mozilla/5.0 (Windows NT 10.0; Win64; x64) AppleWebKit/537.36 (KHTML, like Gecko) Chrome/131.0.0.0 Safari/537.36" version="25.0.3">
  <diagram name="Page-1" id="9Jv5TZBMwYiEGdnl2_Fq">
    <mxGraphModel dx="2074" dy="1098" grid="1" gridSize="10" guides="1" tooltips="1" connect="1" arrows="1" fold="1" page="1" pageScale="1" pageWidth="900" pageHeight="500" math="0" shadow="0">
      <root>
        <mxCell id="0" />
        <mxCell id="1" parent="0" />
        <mxCell id="ZBFJD08WCHcWqZldoDUF-7" style="edgeStyle=orthogonalEdgeStyle;rounded=1;orthogonalLoop=1;jettySize=auto;html=1;exitX=1;exitY=0.5;exitDx=0;exitDy=0;entryX=0.25;entryY=0;entryDx=0;entryDy=0;curved=0;" edge="1" parent="1" source="ZBFJD08WCHcWqZldoDUF-1" target="ZBFJD08WCHcWqZldoDUF-6">
          <mxGeometry relative="1" as="geometry" />
        </mxCell>
        <mxCell id="ZBFJD08WCHcWqZldoDUF-1" value="Request 1" style="rounded=0;whiteSpace=wrap;html=1;" vertex="1" parent="1">
          <mxGeometry x="80" y="60" width="120" height="60" as="geometry" />
        </mxCell>
        <mxCell id="ZBFJD08WCHcWqZldoDUF-8" style="edgeStyle=orthogonalEdgeStyle;rounded=1;orthogonalLoop=1;jettySize=auto;html=1;exitX=1;exitY=0.5;exitDx=0;exitDy=0;entryX=0;entryY=0.5;entryDx=0;entryDy=0;curved=0;" edge="1" parent="1" source="ZBFJD08WCHcWqZldoDUF-2" target="ZBFJD08WCHcWqZldoDUF-6">
          <mxGeometry relative="1" as="geometry" />
        </mxCell>
        <mxCell id="ZBFJD08WCHcWqZldoDUF-2" value="Request 2" style="rounded=0;whiteSpace=wrap;html=1;" vertex="1" parent="1">
          <mxGeometry x="80" y="150" width="120" height="60" as="geometry" />
        </mxCell>
        <mxCell id="ZBFJD08WCHcWqZldoDUF-9" style="edgeStyle=orthogonalEdgeStyle;rounded=1;orthogonalLoop=1;jettySize=auto;html=1;exitX=1;exitY=0.5;exitDx=0;exitDy=0;entryX=0;entryY=1;entryDx=0;entryDy=0;curved=0;" edge="1" parent="1" source="ZBFJD08WCHcWqZldoDUF-3" target="ZBFJD08WCHcWqZldoDUF-6">
          <mxGeometry relative="1" as="geometry" />
        </mxCell>
        <mxCell id="ZBFJD08WCHcWqZldoDUF-3" value="Request 3" style="rounded=0;whiteSpace=wrap;html=1;" vertex="1" parent="1">
          <mxGeometry x="80" y="250" width="120" height="60" as="geometry" />
        </mxCell>
        <mxCell id="ZBFJD08WCHcWqZldoDUF-15" style="edgeStyle=orthogonalEdgeStyle;rounded=1;orthogonalLoop=1;jettySize=auto;html=1;exitX=1;exitY=0.5;exitDx=0;exitDy=0;curved=0;" edge="1" parent="1" source="ZBFJD08WCHcWqZldoDUF-4" target="ZBFJD08WCHcWqZldoDUF-14">
          <mxGeometry relative="1" as="geometry" />
        </mxCell>
        <mxCell id="ZBFJD08WCHcWqZldoDUF-18" style="edgeStyle=orthogonalEdgeStyle;rounded=1;orthogonalLoop=1;jettySize=auto;html=1;exitX=0;exitY=1;exitDx=0;exitDy=0;entryX=0.5;entryY=1;entryDx=0;entryDy=0;curved=0;" edge="1" parent="1" source="ZBFJD08WCHcWqZldoDUF-4" target="ZBFJD08WCHcWqZldoDUF-6">
          <mxGeometry relative="1" as="geometry">
            <Array as="points">
              <mxPoint x="590" y="270" />
              <mxPoint x="410" y="270" />
            </Array>
          </mxGeometry>
        </mxCell>
        <mxCell id="ZBFJD08WCHcWqZldoDUF-20" value="Response Requests" style="edgeLabel;html=1;align=center;verticalAlign=middle;resizable=0;points=[];" vertex="1" connectable="0" parent="ZBFJD08WCHcWqZldoDUF-18">
          <mxGeometry x="0.056" y="-1" relative="1" as="geometry">
            <mxPoint x="8" as="offset" />
          </mxGeometry>
        </mxCell>
        <mxCell id="ZBFJD08WCHcWqZldoDUF-22" style="edgeStyle=orthogonalEdgeStyle;rounded=1;orthogonalLoop=1;jettySize=auto;html=1;exitX=0.25;exitY=1;exitDx=0;exitDy=0;entryX=1;entryY=0.5;entryDx=0;entryDy=0;curved=0;" edge="1" parent="1" source="ZBFJD08WCHcWqZldoDUF-4" target="ZBFJD08WCHcWqZldoDUF-5">
          <mxGeometry relative="1" as="geometry" />
        </mxCell>
        <mxCell id="ZBFJD08WCHcWqZldoDUF-23" value="Sends Every Recived Data" style="edgeLabel;html=1;align=center;verticalAlign=middle;resizable=0;points=[];" vertex="1" connectable="0" parent="ZBFJD08WCHcWqZldoDUF-22">
          <mxGeometry x="0.2824" y="1" relative="1" as="geometry">
            <mxPoint x="-24" y="-1" as="offset" />
          </mxGeometry>
        </mxCell>
        <mxCell id="ZBFJD08WCHcWqZldoDUF-4" value="SerialPort&lt;div&gt;Communicator&lt;/div&gt;" style="shape=process;whiteSpace=wrap;html=1;backgroundOutline=1;" vertex="1" parent="1">
          <mxGeometry x="590" y="160" width="120" height="60" as="geometry" />
        </mxCell>
        <mxCell id="ZBFJD08WCHcWqZldoDUF-5" value="MessageHandler" style="rounded=0;whiteSpace=wrap;html=1;" vertex="1" parent="1">
          <mxGeometry x="80" y="370" width="120" height="60" as="geometry" />
        </mxCell>
        <mxCell id="ZBFJD08WCHcWqZldoDUF-11" style="edgeStyle=orthogonalEdgeStyle;rounded=1;orthogonalLoop=1;jettySize=auto;html=1;exitX=0.5;exitY=0;exitDx=0;exitDy=0;curved=0;entryX=0;entryY=0;entryDx=0;entryDy=0;" edge="1" parent="1" source="ZBFJD08WCHcWqZldoDUF-6" target="ZBFJD08WCHcWqZldoDUF-4">
          <mxGeometry relative="1" as="geometry">
            <mxPoint x="560" y="160" as="targetPoint" />
            <Array as="points">
              <mxPoint x="410" y="120" />
              <mxPoint x="590" y="120" />
            </Array>
          </mxGeometry>
        </mxCell>
        <mxCell id="ZBFJD08WCHcWqZldoDUF-21" value="Recive Request One By One" style="edgeLabel;html=1;align=center;verticalAlign=middle;resizable=0;points=[];" vertex="1" connectable="0" parent="ZBFJD08WCHcWqZldoDUF-11">
          <mxGeometry x="-0.1739" y="-1" relative="1" as="geometry">
            <mxPoint x="23" y="-1" as="offset" />
          </mxGeometry>
        </mxCell>
        <mxCell id="ZBFJD08WCHcWqZldoDUF-6" value="Queue" style="shape=parallelogram;perimeter=parallelogramPerimeter;whiteSpace=wrap;html=1;fixedSize=1;" vertex="1" parent="1">
          <mxGeometry x="350" y="160" width="120" height="60" as="geometry" />
        </mxCell>
        <mxCell id="ZBFJD08WCHcWqZldoDUF-16" style="edgeStyle=orthogonalEdgeStyle;rounded=1;orthogonalLoop=1;jettySize=auto;html=1;exitX=0;exitY=0;exitDx=70;exitDy=80;exitPerimeter=0;entryX=0.5;entryY=1;entryDx=0;entryDy=0;curved=0;" edge="1" parent="1" source="ZBFJD08WCHcWqZldoDUF-14" target="ZBFJD08WCHcWqZldoDUF-4">
          <mxGeometry relative="1" as="geometry" />
        </mxCell>
        <mxCell id="ZBFJD08WCHcWqZldoDUF-14" value="Device" style="shape=cube;whiteSpace=wrap;html=1;boundedLbl=1;backgroundOutline=1;darkOpacity=0.05;darkOpacity2=0.1;" vertex="1" parent="1">
          <mxGeometry x="700" y="260" width="120" height="80" as="geometry" />
        </mxCell>
        <mxCell id="ZBFJD08WCHcWqZldoDUF-19" value="Process&amp;nbsp;&lt;div&gt;Loop&lt;/div&gt;" style="text;html=1;align=center;verticalAlign=middle;resizable=0;points=[];autosize=1;strokeColor=none;fillColor=none;" vertex="1" parent="1">
          <mxGeometry x="490" y="170" width="70" height="40" as="geometry" />
        </mxCell>
      </root>
    </mxGraphModel>
  </diagram>
</mxfile>
